<?xml version="1.0" encoding="UTF-8"?>
<svg version="1.1" xmlns="http://www.w3.org/2000/svg" width="35" height="37">
<path d="M0 0 C11.55 0 23.1 0 35 0 C35 12.21 35 24.42 35 37 C23.45 37 11.9 37 0 37 C0 24.79 0 12.58 0 0 Z " fill="#04A63C" transform="translate(0,0)"/>
<path d="M0 0 C1.5 1.375 1.5 1.375 3 3 C5.59915538 4.19027984 5.59915538 4.19027984 8 5 C8.042721 6.66611905 8.04063832 8.33382885 8 10 C6.19728218 11.80271782 3.55591251 11.21502284 1.125 11.25 C-0.47988281 11.28867187 -0.47988281 11.28867187 -2.1171875 11.328125 C-5 11 -5 11 -6.89453125 9.7109375 C-8 8 -8 8 -7.8125 4.375 C-7.544375 3.26125 -7.27625 2.1475 -7 1 C-4.45132831 -0.27433584 -2.82594567 -0.27570202 0 0 Z " fill="#07A538" transform="translate(17,14)"/>
<path d="M0 0 C3.71580802 0.54048117 4.14127039 0.80442611 6.4375 3.5 C8.41370986 4.54622875 10.4112129 5.55439935 12.4375 6.5 C12.625 9.875 12.625 9.875 12.4375 13.5 C7.76410004 16.61559997 2.90802742 16.08981428 -2.5625 15.5 C-5.8125 13.875 -5.8125 13.875 -7.5625 11.5 C-8.28817326 7.71037298 -7.84027899 6.01111334 -6 2.625 C-3.5625 0.5 -3.5625 0.5 0 0 Z M-4.375 3.6875 C-5.98775784 6.14907776 -5.9959014 7.61065736 -5.5625 10.5 C-4.4715836 12.25926885 -4.4715836 12.25926885 -2.5625 13.5 C0.3739356 13.90090201 0.3739356 13.90090201 3.5625 13.75 C4.63757813 13.73453125 5.71265625 13.7190625 6.8203125 13.703125 C9.36312949 13.79112761 9.36312949 13.79112761 10.4375 12.5 C10.47813832 10.83382885 10.480221 9.16611905 10.4375 7.5 C9.014375 6.819375 9.014375 6.819375 7.5625 6.125 C4.4375 4.5 4.4375 4.5 2.4375 2.5 C-0.40852594 2.13512488 -1.9489306 2.09800625 -4.375 3.6875 Z " fill="#D2EFDD" transform="translate(14.5625,11.5)"/>
<path d="M0 0 C11.55 0 23.1 0 35 0 C35 1.65 35 3.3 35 5 C34.2471875 4.5153125 33.494375 4.030625 32.71875 3.53125 C27.90667862 1.13651025 22.76239491 1.48669432 17.5 1.5 C16.48035156 1.47164063 15.46070313 1.44328125 14.41015625 1.4140625 C7.84303269 1.38394891 7.84303269 1.38394891 2.28125 4.53125 C1.5284375 5.3459375 0.775625 6.160625 0 7 C0 4.69 0 2.38 0 0 Z " fill="#F3FAF6" transform="translate(0,0)"/>
<path d="M0 0 C3.58347789 0.52123315 4.28048181 0.80372726 6.4375 3.5 C7.4275 3.83 8.4175 4.16 9.4375 4.5 C9.4375 5.16 9.4375 5.82 9.4375 6.5 C4.6875 5.75 4.6875 5.75 2.4375 3.5 C-1.14593976 3.33322718 -1.14593976 3.33322718 -4.5625 3.5 C-5.2225 5.15 -5.8825 6.8 -6.5625 8.5 C-6.8925 7.51 -7.2225 6.52 -7.5625 5.5 C-5.42577815 1.67170669 -4.40608642 0.61839809 0 0 Z " fill="#DAF2E3" transform="translate(14.5625,11.5)"/>
<path d="M0 0 C0.99 0.33 1.98 0.66 3 1 C3 3.31 3 5.62 3 8 C2.01 8 1.02 8 0 8 C0 5.36 0 2.72 0 0 Z " fill="#C1E9D0" transform="translate(24,17)"/>
<path d="M0 0 C0.61875 0.78375 1.2375 1.5675 1.875 2.375 C3.89858661 4.96837647 3.89858661 4.96837647 6 7 C4.02 7 2.04 7 0 7 C0 4.69 0 2.38 0 0 Z " fill="#E3F5E9" transform="translate(0,30)"/>
</svg>
